<?xml version="1.0" standalone="no"?>
<!DOCTYPE svg PUBLIC "-//W3C//DTD SVG 20010904//EN"
 "http://www.w3.org/TR/2001/REC-SVG-20010904/DTD/svg10.dtd">
<svg version="1.0" xmlns="http://www.w3.org/2000/svg"
 width="48.000000pt" height="48.000000pt" viewBox="0 0 48.000000 48.000000"
 preserveAspectRatio="xMidYMid meet">
<metadata>
Created by potrace 1.16, written by Peter Selinger 2001-2019
</metadata>
<g transform="translate(0.000000,48.000000) scale(0.100000,-0.100000)"
fill="#000000" stroke="none">
<path d="M84 459 c-8 -8 -14 -25 -14 -37 0 -18 -6 -22 -29 -22 -17 0 -32 -3
-35 -8 -2 -4 13 -6 35 -4 32 3 39 8 39 26 0 12 7 31 16 42 15 18 15 18 5 -3
-6 -12 -11 -33 -11 -47 0 -22 -5 -26 -29 -26 -62 0 -61 2 -61 -170 l0 -159 26
-20 c25 -20 40 -21 225 -21 108 0 204 3 213 6 14 5 16 35 16 225 0 120 -1 220
-2 221 -2 1 -88 4 -191 7 -164 5 -190 4 -203 -10z m350 -25 c14 -5 16 -32 16
-195 l0 -189 -162 0 -163 0 3 187 c3 129 7 190 15 195 14 9 269 11 291 2z
m-344 -234 c0 -142 -1 -150 -20 -150 -10 0 -24 9 -30 19 -11 21 -14 263 -3
274 3 4 17 7 30 7 l23 0 0 -150z"/>
<path d="M169 308 c-1 -2 -2 -23 -4 -48 l-2 -45 127 0 126 0 0 25 0 25 -123
-3 c-82 -2 -123 0 -123 7 0 7 44 11 125 11 104 0 125 2 125 15 0 13 -21 15
-125 15 -69 0 -126 -1 -126 -2z"/>
<path d="M173 148 c9 -6 9 -8 0 -8 -8 0 -11 -9 -9 -22 3 -22 6 -23 126 -23
120 0 123 1 126 23 2 13 -1 22 -9 22 -9 0 -9 2 0 8 6 4 -47 7 -117 7 -70 0
-123 -3 -117 -7z"/>
</g>
</svg>
